<svg width="80" height="80" viewBox="0 0 80 80" fill="none" xmlns="http://www.w3.org/2000/svg">
<path d="M0 20.4C0 12.5438 0 8.61565 1.76832 5.73002C2.75779 4.11535 4.11535 2.75779 5.73002 1.76832C8.61565 0 12.5438 0 20.4 0H59.6C67.4562 0 71.3844 0 74.27 1.76832C75.8847 2.75779 77.2422 4.11535 78.2317 5.73002C80 8.61565 80 12.5438 80 20.4V59.6C80 67.4562 80 71.3844 78.2317 74.27C77.2422 75.8847 75.8847 77.2422 74.27 78.2317C71.3844 80 67.4562 80 59.6 80H20.4C12.5438 80 8.61565 80 5.73002 78.2317C4.11535 77.2422 2.75779 75.8847 1.76832 74.27C0 71.3844 0 67.4562 0 59.6V20.4Z" fill="#262529"/>
<path d="M33.3333 23.3333V28.3333" stroke="#D4D2DE" stroke-width="2" stroke-miterlimit="10" stroke-linecap="round" stroke-linejoin="round"/>
<path d="M46.6667 23.3333V28.3333" stroke="#D4D2DE" stroke-width="2" stroke-miterlimit="10" stroke-linecap="round" stroke-linejoin="round"/>
<path d="M25.8333 35.15H54.1667" stroke="#D4D2DE" stroke-width="2" stroke-miterlimit="10" stroke-linecap="round" stroke-linejoin="round"/>
<path d="M55 34.1667V48.3333C55 53.3333 52.5 56.6667 46.6667 56.6667H33.3333C27.5 56.6667 25 53.3333 25 48.3333V34.1667C25 29.1667 27.5 25.8333 33.3333 25.8333H46.6667C52.5 25.8333 55 29.1667 55 34.1667Z" stroke="#D4D2DE" stroke-width="2" stroke-miterlimit="10" stroke-linecap="round" stroke-linejoin="round"/>
<path d="M46.1578 42.8334H46.1728" stroke="#D4D2DE" stroke-width="2.4" stroke-linecap="round" stroke-linejoin="round"/>
<path d="M46.1578 47.8334H46.1728" stroke="#D4D2DE" stroke-width="2.4" stroke-linecap="round" stroke-linejoin="round"/>
<path d="M39.9925 42.8334H40.0075" stroke="#D4D2DE" stroke-width="2.4" stroke-linecap="round" stroke-linejoin="round"/>
<path d="M39.9925 47.8334H40.0075" stroke="#D4D2DE" stroke-width="2.4" stroke-linecap="round" stroke-linejoin="round"/>
<path d="M33.8238 42.8334H33.8388" stroke="#D4D2DE" stroke-width="2.4" stroke-linecap="round" stroke-linejoin="round"/>
<path d="M33.8238 47.8334H33.8388" stroke="#D4D2DE" stroke-width="2.4" stroke-linecap="round" stroke-linejoin="round"/>
<path d="M5.73002 78.2317L6.25252 77.379L5.73002 78.2317ZM1.76832 74.27L2.62096 73.7475L1.76832 74.27ZM78.2317 74.27L79.0843 74.7925L78.2317 74.27ZM74.27 78.2317L74.7925 79.0843L74.27 78.2317ZM74.27 1.76832L73.7475 2.62096L74.27 1.76832ZM78.2317 5.73002L77.379 6.25252L78.2317 5.73002ZM1.76832 5.73002L2.62096 6.25252L1.76832 5.73002ZM20.4 1H59.6V-1H20.4V1ZM79 20.4V59.6H81V20.4H79ZM59.6 79H20.4V81H59.6V79ZM1 59.6V20.4H-1V59.6H1ZM20.4 79C16.4525 79 13.5621 78.9989 11.2957 78.7834C9.04412 78.5694 7.5118 78.1507 6.25252 77.379L5.20752 79.0843C6.83387 80.0809 8.70842 80.5465 11.1064 80.7745C13.4895 81.0011 16.4912 81 20.4 81V79ZM-1 59.6C-1 63.5088 -1.00106 66.5105 -0.774471 68.8936C-0.546471 71.2916 -0.0809487 73.1661 0.915678 74.7925L2.62096 73.7475C1.84927 72.4882 1.43063 70.9559 1.21655 68.7043C1.00106 66.4379 1 63.5475 1 59.6H-1ZM6.25252 77.379C4.77241 76.472 3.52797 75.2276 2.62096 73.7475L0.915678 74.7925C1.9876 76.5417 3.4583 78.0124 5.20752 79.0843L6.25252 77.379ZM79 59.6C79 63.5475 78.9989 66.4379 78.7834 68.7043C78.5694 70.9559 78.1507 72.4882 77.379 73.7475L79.0843 74.7925C80.0809 73.1661 80.5465 71.2916 80.7745 68.8936C81.0011 66.5105 81 63.5088 81 59.6H79ZM59.6 81C63.5088 81 66.5105 81.0011 68.8936 80.7745C71.2916 80.5465 73.1661 80.0809 74.7925 79.0843L73.7475 77.379C72.4882 78.1507 70.9559 78.5694 68.7043 78.7834C66.4379 78.9989 63.5475 79 59.6 79V81ZM77.379 73.7475C76.472 75.2276 75.2276 76.472 73.7475 77.379L74.7925 79.0843C76.5417 78.0124 78.0124 76.5417 79.0843 74.7925L77.379 73.7475ZM59.6 1C63.5475 1 66.4379 1.00106 68.7043 1.21655C70.9559 1.43063 72.4882 1.84927 73.7475 2.62096L74.7925 0.915678C73.1661 -0.0809487 71.2916 -0.546471 68.8936 -0.774471C66.5105 -1.00106 63.5088 -1 59.6 -1V1ZM81 20.4C81 16.4912 81.0011 13.4895 80.7745 11.1064C80.5465 8.70842 80.0809 6.83387 79.0843 5.20752L77.379 6.25252C78.1507 7.5118 78.5694 9.04412 78.7834 11.2957C78.9989 13.5621 79 16.4525 79 20.4H81ZM73.7475 2.62096C75.2276 3.52797 76.472 4.77241 77.379 6.25252L79.0843 5.20752C78.0124 3.4583 76.5417 1.9876 74.7925 0.915678L73.7475 2.62096ZM20.4 -1C16.4912 -1 13.4895 -1.00106 11.1064 -0.774471C8.70842 -0.546471 6.83387 -0.0809487 5.20752 0.915678L6.25252 2.62096C7.5118 1.84927 9.04412 1.43063 11.2957 1.21655C13.5621 1.00106 16.4525 1 20.4 1V-1ZM1 20.4C1 16.4525 1.00106 13.5621 1.21655 11.2957C1.43063 9.04412 1.84927 7.5118 2.62096 6.25252L0.915678 5.20752C-0.0809487 6.83387 -0.546471 8.70842 -0.774471 11.1064C-1.00106 13.4895 -1 16.4912 -1 20.4H1ZM5.20752 0.915678C3.4583 1.9876 1.9876 3.4583 0.915678 5.20752L2.62096 6.25252C3.52797 4.77241 4.77241 3.52797 6.25252 2.62096L5.20752 0.915678Z" fill="#28272B"/>
</svg>
