<svg width="16" height="17" viewBox="0 0 16 17" fill="none" xmlns="http://www.w3.org/2000/svg">
<path d="M5.33337 8.09999C5.33337 8.61332 5.73337 9.03332 6.22004 9.03332H7.22004C7.64671 9.03332 7.99337 8.66665 7.99337 8.21999C7.99337 7.73332 7.78004 7.55999 7.46671 7.44665L5.86671 6.88665C5.54671 6.77332 5.33337 6.59999 5.33337 6.11332C5.33337 5.66665 5.68004 5.29999 6.10671 5.29999H7.10671C7.60004 5.30665 8.00004 5.71999 8.00004 6.23332" stroke="#727080" stroke-width="1.5" stroke-linecap="round" stroke-linejoin="round"/>
<path d="M6.66663 9.06668V9.56001" stroke="#727080" stroke-width="1.5" stroke-linecap="round" stroke-linejoin="round"/>
<path d="M6.66663 4.77335V5.29335" stroke="#727080" stroke-width="1.5" stroke-linecap="round" stroke-linejoin="round"/>
<path d="M6.66004 12.4867C9.60188 12.4867 11.9867 10.1018 11.9867 7.16001C11.9867 4.21817 9.60188 1.83334 6.66004 1.83334C3.7182 1.83334 1.33337 4.21817 1.33337 7.16001C1.33337 10.1018 3.7182 12.4867 6.66004 12.4867Z" stroke="#727080" stroke-width="1.5" stroke-linecap="round" stroke-linejoin="round"/>
<path d="M8.65332 13.7533C9.25332 14.6 10.2333 15.1533 11.3533 15.1533C13.1733 15.1533 14.6533 13.6733 14.6533 11.8533C14.6533 10.7467 14.1067 9.76666 13.2733 9.16666" stroke="#727080" stroke-width="1.5" stroke-linecap="round" stroke-linejoin="round"/>
</svg>
