<svg width="80" height="81" viewBox="0 0 80 81" fill="none" xmlns="http://www.w3.org/2000/svg">
<path d="M0 20.9C0 13.0438 0 9.11565 1.76832 6.23002C2.75779 4.61535 4.11535 3.25779 5.73002 2.26832C8.61565 0.5 12.5438 0.5 20.4 0.5H59.6C67.4562 0.5 71.3844 0.5 74.27 2.26832C75.8847 3.25779 77.2422 4.61535 78.2317 6.23002C80 9.11565 80 13.0438 80 20.9V60.1C80 67.9562 80 71.8844 78.2317 74.77C77.2422 76.3847 75.8847 77.7422 74.27 78.7317C71.3844 80.5 67.4562 80.5 59.6 80.5H20.4C12.5438 80.5 8.61565 80.5 5.73002 78.7317C4.11535 77.7422 2.75779 76.3847 1.76832 74.77C0 71.8844 0 67.9562 0 60.1V20.9Z" fill="#262529"/>
<path d="M34.9997 23.8333H44.9997C53.333 23.8333 56.6663 27.1666 56.6663 35.4999V45.4999C56.6663 53.8333 53.333 57.1666 44.9997 57.1666H34.9997C26.6663 57.1666 23.333 53.8333 23.333 45.4999V35.4999C23.333 27.1666 26.6663 23.8333 34.9997 23.8333Z" stroke="#E5CB9B" stroke-width="2" stroke-linecap="round" stroke-linejoin="round"/>
<path d="M34.2832 45.95L45.1832 35.05" stroke="#E5CB9B" stroke-width="2" stroke-linecap="round" stroke-linejoin="round"/>
<path d="M34.967 37.7833C36.0992 37.7833 37.017 36.8656 37.017 35.7334C37.017 34.6012 36.0992 33.6833 34.967 33.6833C33.8348 33.6833 32.917 34.6012 32.917 35.7334C32.917 36.8656 33.8348 37.7833 34.967 37.7833Z" stroke="#E5CB9B" stroke-width="2" stroke-linecap="round" stroke-linejoin="round"/>
<path d="M45.8664 47.3168C46.9986 47.3168 47.9164 46.3989 47.9164 45.2668C47.9164 44.1346 46.9986 43.2168 45.8664 43.2168C44.7342 43.2168 43.8164 44.1346 43.8164 45.2668C43.8164 46.3989 44.7342 47.3168 45.8664 47.3168Z" stroke="#E5CB9B" stroke-width="2" stroke-linecap="round" stroke-linejoin="round"/>
<path d="M5.73002 78.7317L6.25252 77.879L5.73002 78.7317ZM1.76832 74.77L2.62096 74.2475L1.76832 74.77ZM78.2317 74.77L79.0843 75.2925L78.2317 74.77ZM74.27 78.7317L74.7925 79.5843L74.27 78.7317ZM74.27 2.26832L73.7475 3.12096L74.27 2.26832ZM78.2317 6.23002L77.379 6.75252L78.2317 6.23002ZM1.76832 6.23002L2.62096 6.75252L1.76832 6.23002ZM20.4 1.5H59.6V-0.5H20.4V1.5ZM79 20.9V60.1H81V20.9H79ZM59.6 79.5H20.4V81.5H59.6V79.5ZM1 60.1V20.9H-1V60.1H1ZM20.4 79.5C16.4525 79.5 13.5621 79.4989 11.2957 79.2834C9.04412 79.0694 7.5118 78.6507 6.25252 77.879L5.20752 79.5843C6.83387 80.5809 8.70842 81.0465 11.1064 81.2745C13.4895 81.5011 16.4912 81.5 20.4 81.5V79.5ZM-1 60.1C-1 64.0088 -1.00106 67.0105 -0.774471 69.3936C-0.546471 71.7916 -0.0809487 73.6661 0.915678 75.2925L2.62096 74.2475C1.84927 72.9882 1.43063 71.4559 1.21655 69.2043C1.00106 66.9379 1 64.0475 1 60.1H-1ZM6.25252 77.879C4.77241 76.972 3.52797 75.7276 2.62096 74.2475L0.915678 75.2925C1.9876 77.0417 3.4583 78.5124 5.20752 79.5843L6.25252 77.879ZM79 60.1C79 64.0475 78.9989 66.9379 78.7834 69.2043C78.5694 71.4559 78.1507 72.9882 77.379 74.2475L79.0843 75.2925C80.0809 73.6661 80.5465 71.7916 80.7745 69.3936C81.0011 67.0105 81 64.0088 81 60.1H79ZM59.6 81.5C63.5088 81.5 66.5105 81.5011 68.8936 81.2745C71.2916 81.0465 73.1661 80.5809 74.7925 79.5843L73.7475 77.879C72.4882 78.6507 70.9559 79.0694 68.7043 79.2834C66.4379 79.4989 63.5475 79.5 59.6 79.5V81.5ZM77.379 74.2475C76.472 75.7276 75.2276 76.972 73.7475 77.879L74.7925 79.5843C76.5417 78.5124 78.0124 77.0417 79.0843 75.2925L77.379 74.2475ZM59.6 1.5C63.5475 1.5 66.4379 1.50106 68.7043 1.71655C70.9559 1.93063 72.4882 2.34927 73.7475 3.12096L74.7925 1.41568C73.1661 0.419051 71.2916 -0.046471 68.8936 -0.274471C66.5105 -0.501055 63.5088 -0.5 59.6 -0.5V1.5ZM81 20.9C81 16.9912 81.0011 13.9895 80.7745 11.6064C80.5465 9.20842 80.0809 7.33387 79.0843 5.70752L77.379 6.75252C78.1507 8.0118 78.5694 9.54412 78.7834 11.7957C78.9989 14.0621 79 16.9525 79 20.9H81ZM73.7475 3.12096C75.2276 4.02797 76.472 5.27241 77.379 6.75252L79.0843 5.70752C78.0124 3.9583 76.5417 2.4876 74.7925 1.41568L73.7475 3.12096ZM20.4 -0.5C16.4912 -0.5 13.4895 -0.501055 11.1064 -0.274471C8.70842 -0.046471 6.83387 0.419051 5.20752 1.41568L6.25252 3.12096C7.5118 2.34927 9.04412 1.93063 11.2957 1.71655C13.5621 1.50106 16.4525 1.5 20.4 1.5V-0.5ZM1 20.9C1 16.9525 1.00106 14.0621 1.21655 11.7957C1.43063 9.54412 1.84927 8.0118 2.62096 6.75252L0.915678 5.70752C-0.0809487 7.33387 -0.546471 9.20842 -0.774471 11.6064C-1.00106 13.9895 -1 16.9912 -1 20.9H1ZM5.20752 1.41568C3.4583 2.4876 1.9876 3.9583 0.915678 5.70752L2.62096 6.75252C3.52797 5.27241 4.77241 4.02797 6.25252 3.12096L5.20752 1.41568Z" fill="#28272B"/>
</svg>
